# xmcd
#
# Track frame offsets:
#	150
#	15587
#	29582
#	43935
#	52907
#	75425
#	91802
#	105522
#	127142
#	137387
#	148215
#	163862
#	186342
#	197562
#	207825
#	221442
#
# Disc length: 3089 seconds
#
# Revision: 2
# Processed by: cddbd v1.5.1PL0 Copyright (c) Steve Scherf et al.
# Submitted via: audiograbber 1.83.01
#
DISCID=df0c0f10
DTITLE=Big Bill Broonzy - St. Louis Blues
DYEAR=1996
DGENRE=Blues
TTITLE0=Glory of Love
TTITLE1=I Don't Want No Woman
TTITLE2=All I Got Belongs To You
TTITLE3=Bill Bailey
TTITLE4=Riding On Down
TTITLE5=Tell Me Who
TTITLE6=C.C. Rider
TTITLE7=Feelin' Low
TTITLE8=Alberta
TTITLE9=Going Down This Road
TTITLE10=In The Evening
TTITLE11=Martha
TTITLE12=St. Louis Blues
TTITLE13=Sixteen Tons
TTITLE14=This Train
TTITLE15=Tell Me What Kind of Man Jesus Is
EXTD=
EXTT0=
EXTT1=
EXTT2=
EXTT3=
EXTT4=
EXTT5=
EXTT6=
EXTT7=
EXTT8=
EXTT9=
EXTT10=
EXTT11=
EXTT12=
EXTT13=
EXTT14=
EXTT15=
PLAYORDER=
